<svg id="horizontal-logo" xmlns="http://www.w3.org/2000/svg"><path d="M137.148 103.059l6.602-.137c.27 2.926 1.293 4.629 3.672 4.629 1.84 0 2.996-1.09 2.996-3.403 0-2.18-1.77-4.289-4.219-6.468l-2.926-2.993c-3.132-2.859-5.242-5.785-5.242-9.867 0-4.492 2.793-9.187 9.664-9.187 5.172 0 9.051 2.793 9.39 9.8l-6.124.204c-.34-3.196-1.293-4.696-3.402-4.696-2.11 0-3.063 1.364-3.063 3.133 0 1.63 1.227 3.13 3.336 5.239l3.606 3.675c3.742 3.606 5.648 6.735 5.648 10.614 0 4.765-2.926 9.46-9.797 9.46-5.309 0-9.664-3.062-10.14-10.003m24.496-.274V86.113c0-6.87 4.898-10.547 10.75-10.547 6.261 0 9.933 3.813 9.933 8.914v3.47h-6.258v-3.06c0-1.84-1.023-3.472-3.539-3.472-2.652 0-3.742 1.906-3.742 4.152v17.418c0 2.383 1.02 4.356 3.676 4.356 2.855 0 3.605-2.11 3.605-3.742v-2.926h6.258v3.336c0 5.715-3.875 9.05-10.07 9.05-6.262 0-10.613-3.539-10.613-10.277m26.402-38.922h7.074v15.992h.066c1.704-2.859 4.223-4.289 7.352-4.289 3.945 0 7.008 2.723 7.008 7.079v29.734h-7.078V85.434c0-2.246-.95-3.88-3.266-3.88-2.383 0-4.082 2.723-4.082 5.512v25.313h-7.074m41.98-9.391V85.637c0-2.313-1.222-4.219-3.808-4.219s-3.676 1.973-3.676 4.289v17.281c0 2.317 1.09 4.29 3.812 4.29 2.86 0 3.672-2.11 3.672-4.29m-14.629-.34V86.047c0-6.805 4.97-10.48 10.887-10.48 5.922 0 10.89 3.331 10.89 10.206v16.739c0 7.215-4.902 10.55-10.89 10.55-6.328 0-10.887-3.406-10.887-10.414m27.762 3.812V63.864h7.078v40.489c0 1.085.543 1.972 2.04 1.972.546 0 1.09-.07 1.769-.136v5.921c-1.293.543-2.79.746-4.219.746-4.695 0-6.668-2.585-6.668-6.394m28.442-3.743v-7.824h-2.247c-2.515 0-4.761 1.835-4.761 6.46 0 4.29 1.293 6.125 3.195 6.125 2.047 0 3.813-2.175 3.813-4.761m-14.086-.547c0-7.484 5.308-11.637 11.707-11.703h2.379V84.48c0-1.972-1.157-3.265-3.47-3.265-2.312 0-3.472 1.36-3.472 3.195v3.27h-6.394v-3.336c0-5.239 4.148-8.778 10.41-8.778 6.058 0 9.937 3.47 9.937 9.051v19.258c0 2.86.27 7.418.34 8.504h-6.465c0-.406-.203-1.902-.34-3.742h-.203c-1.363 3.27-4.629 4.425-6.738 4.425-4.219 0-7.691-3.335-7.691-10.89m26.129.887l6.601-.137c.274 2.926 1.293 4.629 3.676 4.629 1.836 0 2.992-1.09 2.992-3.403 0-2.18-1.77-4.289-4.219-6.468l-2.925-2.993c-3.13-2.859-5.239-5.785-5.239-9.867 0-4.492 2.79-9.187 9.66-9.187 5.172 0 9.051 2.793 9.391 9.8l-6.121.204c-.344-3.196-1.293-4.696-3.402-4.696-2.114 0-3.063 1.364-3.063 3.133 0 1.63 1.223 3.13 3.332 5.239l3.606 3.675c3.746 3.606 5.648 6.735 5.648 10.614 0 4.765-2.926 9.46-9.797 9.46-5.308 0-9.664-3.062-10.14-10.003M87.242 33.465c.043.3.07.472.121.77.153.898.36 1.769.586 2.632.13.488.281 1.094.438 1.57 1.527 6.243 4.765 11.926 9.398 16.168l.422.387c3.164 2.801 7.05 4.977 11.18 6.375l.039.012 2.254.625a47.374 47.374 0 012.27 9.266 1.664 1.664 0 00-.235-.184c-.27-.168-.586-.254-.887-.348a4.59 4.59 0 01-.441-.16c-.106-.043-.227-.082-.328-.14-.02-.012-1.586-2.102-1.793-2.356a77.11 77.11 0 00-1.278-1.48 86.377 86.377 0 00-2.066-2.079 65.37 65.37 0 00-1.469-1.289 77.08 77.08 0 00-1.535-1.203 77.903 77.903 0 00-1.602-1.117c-.27-.18-1.379-.863-1.66-1.027-.281-.16-.566-.32-.851-.477a109.06 109.06 0 00-2.63-1.289c-.3-.129-1.507-.617-1.812-.73a43.367 43.367 0 00-.922-.328 45.706 45.706 0 00-.68-.22l-.16-.054.044.156c1.828 9.172 9.234 15.235 18.492 15.813.21.058.422.117.613.191.48.188.96.524 1.36.89a.521.521 0 01.163.349 48.41 48.41 0 01.153 3.789c0 14.66-6.63 27.77-17.047 36.5-5.031 3.93-10.914 6.968-16.832 8.847l-.395 4.82c18.739-4.546 33.328-19.699 37.094-38.753a45.11 45.11 0 00.399-2.316c.07-.446.132-.888.183-1.337.047-.363.082-.726.121-1.09.028-.28.059-.562.082-.847.047-.563.082-1.13.11-1.696l.015-.304c.008-.149.02-.301.024-.45v-.058c.039-1.086.043-2.172.004-3.273a1.03 1.03 0 00-.004-.063c-.004-.164-.02-.328-.028-.492-.007-.16-.02-.317-.03-.48-.712-13.876-7.095-26.247-16.884-34.84a38.51 38.51 0 00-1.351-1.165 42.399 42.399 0 00-3.325-2.496c-1.335-.996-2.792-1.855-4.296-2.636a7.118 7.118 0 00-.246-.125 46.81 46.81 0 00-4.778-2.258M58.96 125.559c-12.894-2.149-24.034-9.48-31.21-19.778v-.011c-.05-.274-.11-.567-.09-.829.016-.21.047-.43.067-.64.125-1.262.187-2.524.187-3.75 0-8.246-2.586-16.102-7.469-22.727l-.02-.027s-.152-.203-.152-.2a39.354 39.354 0 00-1.23-1.558l-.137-.168-.023.215a50.785 50.785 0 00-.227 4.664c0 .875.028 1.781.086 2.773-.004.008-.004.016-.004.024.485 8.824 3.395 17.32 8.309 24.7a51.59 51.59 0 001.34 1.925 50.16 50.16 0 0016.761 14.277c3.903 2.09 8.079 3.567 12.317 4.54l1.355.28a84.82 84.82 0 00.14-3.71M24.793 70.125c.738.895 2.21.484 2.441-.656.168-.836.305-1.617.38-2.192a1.233 1.233 0 00-.575-1.215c-.664-.414-.855-1.312-.273-1.843.898-.824 2.183-1.418 2.101-2.844-.02-.398-.469-.613-.777-.363-.203.16-.375.363-.567.543a6.23 6.23 0 01-.507.441c-.082.066-.172.121-.254.191-.063.047-.125.11-.2.137a.58.58 0 01-.269.028c-.113-.012-.234-.024-.34-.055a1.322 1.322 0 01-.293-.133.481.481 0 01-.219-.52c.391-1.804 6.614-11.039 7.887-8.703.207.387 1.422 2.274.895 3.227-.512.922.836 1.781 1.418.902.625-.949 1.586-1.722 2.43-2.465 1.187-1.046.644-2.445 1.894-3.414.543-.418 2.86-.433 3.418-.824.379-.262.605-.883 1.02-1.105.417-.227.964-.082 1.413-.239.254-.09.508-.168.762-.246.922-.277 1.953-.777 2.875-1.058.906-.278 1.805-.149 2.75-.235a5.92 5.92 0 01.95-.035c.09.008.292.055.343.219.09.309.074.668-.203.832-.113.066-.23.129-.348.2-.328.202-.265.472.114.503.41.031.84.059 1.222-.094.29-.117.532-.332.742-.562a5.346 5.346 0 001.387-3.082c.024-.2.008-.438-.16-.54-.121-.073-.277-.042-.414 0-.2.06-1.004.575-1.176.458-.027-.016-.035-.047-.043-.078-.066-.297.02-.809.375-.89.477-.106.824-.454 1.227-.704.73-.45 1.574.05 2.308.285.84.27 1.77.191 2.637.344.219.039.422.039.633-.02.21-.054.426-.11.598.067.265.27-.07.62-.293.789-.282.207-.645.27-.985.297-.402.035-.898.011-1.254.242-.59.387-1.476 1.496-1.05 2.25.093.168.238.305.378.437.23.223.457.453.672.692.188.199.36.488.606.62.504.317 1.168.169 1.62-.167.177-.133.325-.309.376-.52.066-.257-.02-.511-.02-.773 0-.23.067-.473.137-.688.148-.437.41-.84.79-1.105.37-.262.823-.371 1.198-.629a4.342 4.342 0 001.024-1.047c.125-.176.883-1.195.55-1.422a24.152 24.152 0 01-.535-.277c-.168-.09-.304-.234-.289-.441.016-.176.137-.329.25-.465.149-.176.301-.36.493-.492.3-.215 2.925-1.602 2.722-2.141-.336-.899-.875-.184-1.332-.074-.844.203-1.41-.836-.773-1.43a2.59 2.59 0 00.722-1.168c.063-.215.11-.46.078-.688-.046-.316-.195-.378-.484-.398a4.585 4.585 0 00-2.57.59c-2.707 1.523-5.602 2.578-8.528 3.566-.546.188-1.093.45-1.687.403a.331.331 0 01-.164-.043c-.297-.203.437-.72.574-.825.293-.222 2.852-2.43 2.918-3.558.023-.426.32-.938.7-1.129 1.14-.57 2.413-.883 3.663-1.098 1.528-.261 3.082-.375 4.63-.418a66.175 66.175 0 014.222.024c.902.027 1.808.09 2.715.074a3.45 3.45 0 00.633-.07.952.952 0 00.453-.2c.11-.093.183-.218.277-.328.102-.113.23-.199.356-.285.28-.187.582-.347.87-.52.055-.035.114-.074.172-.109.09-.058.446-.258.336-.418-.035-.05-.109-.074-.168-.093a1.91 1.91 0 00-.363-.063c-2.055-.336-4.293-.477-6.308-.535a47.725 47.725 0 00-5.18.125 49.875 49.875 0 00-4.82.621 49.527 49.527 0 00-9.23 2.602 49.103 49.103 0 00-4.349 1.937 50.646 50.646 0 00-4.136 2.34 50.602 50.602 0 00-3.89 2.719 49.845 49.845 0 00-6.934 6.504 49.901 49.901 0 00-2.985 3.742 49.102 49.102 0 00-2.629 4.047c-.187.316-.394.636-.55.968-.692 1.407-2.735 4.618-2.512 6.75.031.317.328 4.649 2.281 7.016"/><path d="M76.52 140.16c.57-17.355 1.93-41.883 8.214-52.894 2.407-4.22 12.008-8.536 7.153-12.516-6.254-5.121-10.957 10.832-19.555 12.496a.945.945 0 01-.234.012c-9.106-.66-16.692-25.64-24.91-23.235-4.907 1.434 9.046 15.262 10.585 22.868.11.546-.496.98-.98.695-8.48-4.996-13.988-22.871-18.54-19.098-5.218 4.32 9.49 16.313 13.536 23.407.328.574-.305 1.226-.89.918-6.485-3.395-12.231-13.098-16.231-10.02-3 2.312 9.352 12.402 17.215 17.008 1.082.636.715 2.289-.535 2.422-4.203.453-10.032-4.438-11.313-.657-1.816 5.356 18.742 5.227 21.453 15.204 1.27 4.644-.695 23.39-.695 23.39"/></svg>