<svg id="vertical-logo" xmlns="http://www.w3.org/2000/svg"><path d="M51.54 200.793l5.956-.125c.246 2.644 1.168 4.18 3.316 4.18 1.66 0 2.704-.985 2.704-3.075 0-1.964-1.598-3.867-3.809-5.832l-2.64-2.703c-2.825-2.582-4.731-5.222-4.731-8.91 0-4.05 2.52-8.289 8.723-8.289 4.668 0 8.168 2.516 8.48 8.844l-5.531.183c-.305-2.886-1.168-4.238-3.07-4.238-1.907 0-2.766 1.23-2.766 2.828 0 1.473 1.105 2.824 3.012 4.727l3.254 3.32c3.378 3.254 5.101 6.078 5.101 9.582 0 4.3-2.644 8.54-8.848 8.54-4.793 0-8.722-2.766-9.152-9.032m22.113-.246v-15.05c0-6.204 4.422-9.52 9.703-9.52 5.653 0 8.97 3.441 8.97 8.046v3.133h-5.653v-2.765c0-1.657-.922-3.133-3.195-3.133-2.395 0-3.375 1.722-3.375 3.75v15.722c0 2.153.918 3.934 3.316 3.934 2.578 0 3.254-1.906 3.254-3.379v-2.644h5.652v3.011c0 5.16-3.5 8.172-9.09 8.172-5.652 0-9.582-3.195-9.582-9.277M97.48 165.41h6.391v14.438h.059c1.539-2.582 3.808-3.871 6.636-3.871 3.563 0 6.325 2.457 6.325 6.386v26.844h-6.387v-24.324c0-2.028-.86-3.5-2.95-3.5-2.148 0-3.683 2.457-3.683 4.972v22.852h-6.39m37.898-8.477v-15.664c0-2.086-1.106-3.808-3.438-3.808-2.336 0-3.32 1.785-3.32 3.87v15.602c0 2.09.984 3.872 3.441 3.872 2.583 0 3.317-1.907 3.317-3.872m-13.207-.304v-14.988c0-6.145 4.484-9.461 9.832-9.461 5.344 0 9.828 3.011 9.828 9.214v15.11c0 6.512-4.426 9.523-9.828 9.523-5.715 0-9.832-3.07-9.832-9.398m25.062 3.437V165.41h6.387v36.55c0 .981.492 1.782 1.844 1.782.492 0 .984-.062 1.597-.125v5.348c-1.167.488-2.519.672-3.808.672-4.238 0-6.02-2.332-6.02-5.774m25.676-3.379v-7.062h-2.027c-2.274 0-4.301 1.656-4.301 5.836 0 3.87 1.168 5.527 2.887 5.527 1.844 0 3.441-1.965 3.441-4.3m-12.715-.493c0-6.754 4.79-10.504 10.563-10.562h2.152v-5.407c0-1.78-1.047-2.949-3.133-2.949-2.09 0-3.132 1.23-3.132 2.887v2.95h-5.778v-3.009c0-4.73 3.75-7.925 9.399-7.925 5.468 0 8.968 3.132 8.968 8.168v17.386c0 2.578.246 6.696.309 7.68h-5.836c0-.371-.184-1.723-.309-3.383h-.183c-1.227 2.95-4.176 3.996-6.078 3.996-3.813 0-6.942-3.012-6.942-9.832m23.586.801l5.957-.125c.246 2.644 1.168 4.18 3.317 4.18 1.66 0 2.703-.985 2.703-3.075 0-1.964-1.598-3.867-3.809-5.832l-2.64-2.703c-2.829-2.582-4.73-5.222-4.73-8.91 0-4.05 2.519-8.289 8.722-8.289 4.668 0 8.168 2.516 8.476 8.844l-5.527.183c-.309-2.886-1.168-4.238-3.074-4.238-1.903 0-2.762 1.23-2.762 2.828 0 1.473 1.106 2.824 3.012 4.727l3.254 3.32c3.379 3.254 5.097 6.078 5.097 9.582 0 4.3-2.64 8.54-8.847 8.54-4.79 0-8.72-2.766-9.149-9.032m-4.664-114.059c0-.039-.008-.078-.008-.117 0 .016.004.035.004.055-.004-.18-.023-.352-.027-.527a20.844 20.844 0 01-.031-.508c-.758-14.703-7.52-27.813-17.895-36.922a48.413 48.413 0 00-1.433-1.23 43.157 43.157 0 00-3.524-2.645c-1.414-1.059-2.957-1.969-4.55-2.797-.087-.043-.176-.09-.262-.133a50.822 50.822 0 00-5.063-2.394c.102.054.195.12.3.164-.105-.043-.198-.11-.296-.145.047.32.07.485.125.8.164.95.379 1.876.621 2.79.137.52.3 1.16.461 1.664 1.621 6.613 5.055 12.637 9.961 17.133l.445.41c3.36 2.969 7.477 5.273 11.852 6.754l.039.012 2.39.66a50.105 50.105 0 012.403 9.82c-.082-.07-.16-.14-.246-.191-.29-.18-.617-.27-.942-.371a3.877 3.877 0 01-.464-.168c-.114-.047-.247-.086-.348-.149-.024-.015-1.684-2.23-1.902-2.496a65.092 65.092 0 00-1.356-1.57 105.62 105.62 0 00-2.187-2.203 64.64 64.64 0 00-1.555-1.364A86.814 86.814 0 00164 69.79a87.336 87.336 0 00-1.695-1.184 82.272 82.272 0 00-1.758-1.085c-.3-.172-.602-.344-.906-.508a103.99 103.99 0 00-2.786-1.364 68.109 68.109 0 00-1.921-.777 48.48 48.48 0 00-.977-.344c-.238-.082-.48-.16-.723-.234l-.168-.059.047.168c1.938 9.72 9.785 16.145 19.594 16.758.227.059.45.121.652.2.512.199 1.016.554 1.442.945a.55.55 0 01.172.367c.105 1.324.164 2.664.164 4.016 0 15.535-7.028 29.425-18.067 38.68-5.332 4.163-11.562 7.386-17.836 9.374l-.422 5.11c19.864-4.82 35.32-20.875 39.313-41.07a57.76 57.76 0 00.34-1.891c.027-.188.055-.375.086-.563.066-.473.137-.941.191-1.418.047-.383.086-.765.125-1.152.031-.297.063-.598.086-.899.05-.593.086-1.195.117-1.796.004-.106.016-.215.02-.325.008-.156.02-.316.023-.472v-.063c.043-1.152.043-2.3.004-3.469M116.36 137.11c-13.665-2.274-25.47-10.044-33.075-20.958v-.011c-.055-.293-.113-.602-.094-.88.016-.226.047-.452.07-.679a40.3 40.3 0 00.196-3.973c0-8.738-2.738-17.062-7.914-24.082l-.02-.027s-.16-.219-.16-.21c-.43-.571-.863-1.13-1.304-1.657l-.149-.176-.02.227a52.931 52.931 0 00-.238 4.945c0 .922.024 1.883.086 2.933 0 .012 0 .02-.004.032.516 9.351 3.598 18.351 8.809 26.172.457.687.926 1.37 1.418 2.039a53.165 53.165 0 0017.762 15.129c4.136 2.214 8.562 3.78 13.05 4.808l1.438.301a89.12 89.12 0 00.148-3.934m-.144 3.934h-.004l-.012.203M80.152 78.367c.782.95 2.34.516 2.586-.691.18-.89.325-1.719.407-2.328a1.317 1.317 0 00-.614-1.285c-.703-.442-.902-1.391-.293-1.954.957-.875 2.32-1.504 2.23-3.015-.023-.418-.495-.649-.823-.383-.215.172-.399.383-.598.574a7.72 7.72 0 01-.54.469c-.089.07-.183.129-.269.2-.066.054-.133.116-.21.148a.606.606 0 01-.29.027c-.117-.012-.246-.024-.36-.059a1.268 1.268 0 01-.304-.14.504.504 0 01-.234-.547c.414-1.914 7.004-11.7 8.355-9.223.223.406 1.508 2.406.95 3.414-.543.98.882 1.89 1.5.957.664-1.004 1.683-1.824 2.578-2.61 1.257-1.108.683-2.593 2.007-3.616.575-.446 3.028-.461 3.622-.875.402-.278.644-.934 1.078-1.168.441-.242 1.027-.09 1.5-.254a13.6 13.6 0 01.808-.262c.977-.297 2.07-.824 3.043-1.121.965-.293 1.914-.156 2.914-.25a6.212 6.212 0 011.008-.035c.098.004.313.055.363.23.098.325.082.707-.21.88-.122.07-.25.14-.372.214-.347.215-.28.5.121.531.434.032.887.067 1.293-.097.309-.125.563-.356.79-.598a5.663 5.663 0 001.468-3.266c.024-.21.012-.46-.168-.57-.133-.078-.297-.043-.441 0-.211.063-1.067.606-1.246.484-.028-.015-.04-.05-.043-.082-.07-.316.02-.859.394-.945.504-.11.875-.48 1.297-.742.778-.477 1.676.055 2.453.3.887.286 1.875.204 2.79.364.234.043.449.043.675-.02.223-.058.445-.117.63.07.284.286-.075.657-.31.833-.296.222-.683.289-1.042.32-.426.031-.954.012-1.329.254-.629.41-1.566 1.586-1.113 2.387.102.175.25.32.399.46.246.239.484.481.714.735.196.211.383.516.641.656.531.336 1.238.176 1.719-.18.183-.136.34-.324.398-.546.067-.274-.023-.547-.023-.82a2.58 2.58 0 01.144-.731c.157-.461.434-.887.836-1.168.395-.277.875-.398 1.27-.668.426-.293.789-.691 1.086-1.11.133-.187.937-1.269.586-1.503a27.597 27.597 0 01-.567-.297c-.18-.098-.324-.246-.304-.469.011-.187.14-.348.261-.488.157-.192.317-.383.52-.528.324-.222 3.101-1.695 2.89-2.265-.359-.953-.93-.195-1.414-.078-.894.21-1.496-.887-.82-1.516.356-.336.633-.766.766-1.238.066-.23.117-.488.082-.727-.051-.34-.207-.402-.508-.426-.95-.07-1.899.16-2.73.63-2.872 1.613-5.934 2.73-9.036 3.777-.578.199-1.16.476-1.789.425a.335.335 0 01-.172-.046c-.312-.215.461-.762.61-.875.308-.23 3.02-2.57 3.09-3.77.027-.445.34-.992.742-1.191 1.21-.61 2.558-.938 3.883-1.168 1.617-.278 3.265-.395 4.906-.442a71.148 71.148 0 014.472.024c.958.027 1.918.097 2.88.082a3.5 3.5 0 00.667-.078.974.974 0 00.48-.211c.114-.102.196-.235.294-.348.105-.121.246-.21.379-.3.3-.2.617-.368.922-.555l.18-.114c.1-.062.476-.273.359-.437-.036-.059-.118-.082-.176-.102-.125-.039-.258-.054-.387-.07-2.176-.352-4.55-.5-6.683-.566a50.53 50.53 0 00-5.493.136 52.35 52.35 0 00-5.109.657 52.683 52.683 0 00-9.777 2.753 52.878 52.878 0 00-4.61 2.055A52.997 52.997 0 0086.93 54.5a51.594 51.594 0 00-3.164 3.969c-1 1.379-1.93 2.812-2.786 4.285-.199.336-.421.676-.585 1.027-.735 1.489-2.895 4.895-2.66 7.153.035.332.347 4.925 2.417 7.433"/><path d="M151.25 83.258c-6.625-5.426-11.61 11.476-20.723 13.238a.87.87 0 01-.246.016c-9.648-.7-17.687-27.172-26.398-24.621-5.2 1.515 9.59 16.171 11.219 24.226.117.586-.528 1.043-1.04.742-8.988-5.296-14.82-24.238-19.648-20.238-5.527 4.578 10.059 17.285 14.348 24.805.347.605-.325 1.3-.946.972-6.87-3.601-12.96-13.878-17.203-10.617-3.172 2.45 9.914 13.14 18.246 18.024 1.149.672.758 2.425-.566 2.566-4.453.477-10.629-4.703-11.992-.695-1.922 5.672 19.867 5.539 22.738 16.105 1.344 4.926-.723 24.79-.723 24.79l16.668.062c.586-18.39 2.028-44.446 8.688-56.113 2.55-4.47 12.726-9.043 7.578-13.262"/></svg>