<svg xmlns="http://www.w3.org/2000/svg" width="1.25em" height="1.25em" viewBox="0 0 184 184" class="prefix__svg-icon prefix__s-mr-05 prefix__big" fill="currentColor"><path d="M40.778 111.193l-6.4 23.91-23.409.5a92.161 92.161 0 01-.677-85.909h.005l20.841 3.821 9.13 20.716a54.906 54.906 0 00.516 36.967z" fill="#fbbb00"/><path d="M182.395 74.813a91.965 91.965 0 01-32.8 88.932l-.005-.005-26.25-1.339-3.715-23.192a54.831 54.831 0 0023.591-28H94.023v-36.4h88.372z" fill="#518ef8"/><path d="M149.591 163.74l.005.005a92.03 92.03 0 01-138.632-28.146l29.814-24.405a54.716 54.716 0 0078.847 28.014z" fill="#28b446"/><path d="M150.724 21.18l-29.8 24.4a54.709 54.709 0 00-80.661 28.647L10.292 49.69h-.005a92.019 92.019 0 01140.437-28.51z" fill="#f14336"/></svg>